<?xml version="1.0" encoding="utf-8"?>
<!-- Generator: Adobe Illustrator 19.2.1, SVG Export Plug-In . SVG Version: 6.00 Build 0)  -->
<!DOCTYPE svg PUBLIC "-//W3C//DTD SVG 1.1//EN" "http://www.w3.org/Graphics/SVG/1.1/DTD/svg11.dtd">
<svg version="1.1" id="Layer_1" xmlns="http://www.w3.org/2000/svg" xmlns:xlink="http://www.w3.org/1999/xlink" x="0px" y="0px"
	 width="200px" height="100px" viewBox="0 0 200 100" style="enable-background:new 0 0 200 100;" xml:space="preserve">
<style type="text/css">
	.st0{fill:#E65C2E;}
</style>
<path class="st0" d="M31.7,22.5C16.5,22.5,4.2,34.8,4.2,50s12.3,27.5,27.5,27.5S59.2,65.2,59.2,50S46.9,22.5,31.7,22.5z M31.7,72.4
	c-12.4,0-22.4-10-22.4-22.4s10-22.4,22.4-22.4s22.4,10,22.4,22.4S44.1,72.4,31.7,72.4z M31.7,53c-5.6,0-10.4,3.9-11.5,9.4
	c0,0.1,0,0.2,0,0.4c0,1.1,0.9,2,2,2h19.2c0.1,0,0.3,0,0.4,0c1.1-0.2,1.8-1.3,1.6-2.3C42.1,56.9,37.3,53,31.7,53z M40.6,38.6
	l-1.2,1.2l-1.1-1.1c-0.6-0.6-1.7-0.6-2.3,0s-0.6,1.7,0,2.3l1.1,1.1l-1.2,1.2c-0.6,0.6-0.6,1.6,0,2.2c0.6,0.6,1.6,0.6,2.2,0l1.2-1.2
	l1.1,1.1c0.6,0.6,1.7,0.6,2.3,0s0.6-1.7,0-2.3L41.6,42l1.2-1.2c0.6-0.6,0.6-1.6,0-2.2C42.2,38,41.2,38,40.6,38.6z M20.6,45.5
	c0.6,0.6,1.6,0.6,2.2,0l1.2-1.2l1.1,1.1c0.6,0.6,1.7,0.6,2.3,0c0.6-0.6,0.6-1.7,0-2.3L26.3,42l1.2-1.2c0.6-0.6,0.6-1.6,0-2.2
	c-0.6-0.6-1.6-0.6-2.2,0l-1.2,1.2L23,38.7c-0.6-0.6-1.7-0.6-2.3,0c-0.6,0.6-0.6,1.7,0,2.3l1.1,1.1l-1.2,1.2
	C20,43.9,20,44.9,20.6,45.5z"/>
<g>
	<path class="st0" d="M78.5,58.2l2.7,0.4l0,1.6h-8.8l-0.2-1c0.6-0.3,1.4-0.7,2.5-1.1v-5.9l-6-11.1l-2-0.3l0-1.6h7.9l0.2,1l-2,0.9
		l3.2,6.1l0.9,2.7h0.2l4.4-8.8l-2.5-0.3l0-1.6h7.4l0.2,1c-0.7,0.4-1.5,0.7-2.4,1L78.5,52V58.2z"/>
	<path class="st0" d="M84.3,52.5c0-2.4,0.7-4.3,2.1-5.9c1.4-1.5,3.2-2.3,5.4-2.3c2.2,0,3.9,0.8,5.3,2.3c1.4,1.5,2.1,3.5,2.1,6
		c0,2.5-0.7,4.4-2,5.9c-1.4,1.5-3.1,2.2-5.2,2.2c-2.2,0-4-0.8-5.4-2.3C85,56.9,84.3,54.9,84.3,52.5z M93.5,58.2
		c1.2-0.8,1.8-2.5,1.8-5.2c0-1.8-0.3-3.3-0.9-4.5c-0.6-1.2-1.5-1.8-2.8-1.8c-0.8,0-1.5,0.2-2,0.6c-0.9,1.1-1.3,2.7-1.3,5
		c0,1.8,0.3,3.2,1,4.4c0.7,1.2,1.7,1.8,3,1.8C92.6,58.4,93,58.4,93.5,58.2z"/>
	<path class="st0" d="M117.8,58.9l-3.6,1.8c-0.4,0-1-0.3-1.5-0.8c-0.6-0.5-1-1.1-1.2-1.7c-2.1,1.5-4.1,2.3-5.9,2.6
		c-0.7-0.1-1.3-0.4-2-0.9s-1.1-1-1.4-1.5s-0.4-1.6-0.4-3.3v-7.8l-2.4,0l-0.3-1.5c1.5-0.6,3.2-1,5-1.1v0l1.4,1.2v9.3
		c0.1,1.7,0.8,2.6,2.1,2.6c1,0,2.2-0.4,3.6-1.2v-9.4l-2.2-0.1l-0.3-1.5c1.5-0.6,3.1-1,4.8-1l1.4,1.3V57c0,0.4,0.3,0.7,0.8,0.7
		l1.5-0.2L117.8,58.9z"/>
	<path class="st0" d="M144.4,53.3c0,2.8-0.1,5.1-0.4,6.9h-16.4l-0.2-1l2.7-1.2V41.1l-2.5-0.3l0-1.6h8.9l0.2,1
		c-0.5,0.3-1.4,0.7-2.7,1.2v16.4l7.1-0.4l1.1-4.2L144.4,53.3z"/>
	<path class="st0" d="M145.3,52.5c0-2.4,0.7-4.3,2.1-5.9s3.2-2.3,5.4-2.3c2.2,0,3.9,0.8,5.3,2.3c1.4,1.5,2.1,3.5,2.1,6
		c0,2.5-0.7,4.4-2,5.9c-1.4,1.5-3.1,2.2-5.2,2.2c-2.2,0-4-0.8-5.4-2.3C146.1,56.9,145.3,54.9,145.3,52.5z M154.6,58.2
		c1.2-0.8,1.8-2.5,1.8-5.2c0-1.8-0.3-3.3-0.9-4.5c-0.6-1.2-1.5-1.8-2.8-1.8c-0.8,0-1.5,0.2-2,0.6c-0.9,1.1-1.3,2.7-1.3,5
		c0,1.8,0.3,3.2,1,4.4c0.7,1.2,1.7,1.8,3,1.8C153.6,58.4,154.1,58.4,154.6,58.2z"/>
	<path class="st0" d="M165,48.2c0,0.6,0.3,1.2,0.8,1.6c0.5,0.4,1.4,0.8,2.5,1.3l2.1,1.1c1.7,1,2.5,2.3,2.5,3.9
		c0,1.4-0.5,2.5-1.6,3.4c-1.1,0.9-2.5,1.3-4.2,1.3c-2,0-4-0.6-6-1.7l1.4-3.3c1.9,1.4,4,2.3,6.1,2.7c0.5-0.4,0.8-1,0.8-1.6
		c0-0.6-0.2-1.1-0.7-1.5c-0.4-0.4-1.5-1-3.1-1.7c-1.6-0.7-2.7-1.4-3.3-2.1s-0.9-1.5-0.9-2.4c0-1.5,0.6-2.6,1.9-3.5
		c1.2-0.9,2.8-1.3,4.5-1.3c1.6,0,3.1,0.3,4.4,1h0l0,0.8c0,1.2-0.2,2.4-0.6,3.5h-2.1l-0.5-2.7c-1.1-0.4-2.2-0.5-3.2-0.4
		C165.4,46.9,165,47.5,165,48.2z"/>
	<path class="st0" d="M177.9,52.1c0,1.8,0.5,3.2,1.4,4.2c0.9,1,2.2,1.5,3.6,1.5c1.2,0,2.5-0.4,4.1-1.1l0.6,1.5l-5,2.4
		c-2.5,0.1-4.5-0.5-6.1-2c-1.6-1.5-2.4-3.4-2.4-5.8c0-2.3,0.7-4.3,2.2-5.9c1.5-1.7,3.3-2.5,5.4-2.5c1.8,0,3.3,0.6,4.4,1.7
		s1.7,2.6,1.7,4.3l-1.9,1.8L177.9,52.1z M180.4,46.6c-1.1,0.6-1.9,1.8-2.3,3.6l6.2-0.3c-0.2-1-0.6-1.8-1.4-2.4
		C182.3,46.8,181.4,46.6,180.4,46.6z"/>
</g>
</svg>
