<?xml version="1.0" encoding="utf-8"?>
<!-- Generator: Adobe Illustrator 19.2.1, SVG Export Plug-In . SVG Version: 6.00 Build 0)  -->
<!DOCTYPE svg PUBLIC "-//W3C//DTD SVG 1.1//EN" "http://www.w3.org/Graphics/SVG/1.1/DTD/svg11.dtd">
<svg version="1.1" id="Layer_1" xmlns="http://www.w3.org/2000/svg" xmlns:xlink="http://www.w3.org/1999/xlink" x="0px" y="0px"
	 width="100px" height="100px" viewBox="0 0 100 100" style="enable-background:new 0 0 100 100;" xml:space="preserve">
<style type="text/css">
	.st0{fill:#FFFFFF;}
</style>
<path class="st0" d="M65.5,84.7l31.1-28l2.5-2.2l-1.7-2.8L85.4,32.4l-0.3-0.6l-0.5-0.4l-19.2-16l-1.1-0.9h-1.4H23.6h-2l-1.2,1.6
	L10.1,29.7l-0.3,0.4l-0.2,0.4l-7.9,18L1,50.2l0.8,1.6l15.2,31.6l1.1,2.1h2.5h42.3h1.5L65.5,84.7z M27.5,31l-9.7,10.1l-4.2-8.4
	L27.5,31z M60.7,21.2l-5.4,10l-28.9,8.2l17.1-8.7l0,0l0,0L60.7,21.2z M66.5,29.8l-8.7,0.9l5.2-9.8L66.5,29.8z M43.1,28.2l-17.4-9.7
	H61L43.1,28.2z M30.6,30.6l8.3-0.2l-16.4,8.6L30.6,30.6z M18.3,43.6l36.5-10.4l-2.8,26.4l-16.1,7l-22.6-0.4l0,0l-1.7-2.9L18.3,43.6z
	 M60.5,66.6l-15.2,7l8-11.9L60.5,66.6z M37.8,68.2l12.5-5.6l-7.8,11.7L37.8,68.2z M35.8,68.8l5.1,6.6l-20.5,6l-6.1-12.8L35.8,68.8z
	 M42.9,76.4L42.9,76.4L42.9,76.4l17.7-8.1l-5.9,13.1H25.9L42.9,76.4z M56.8,81.5l6.4-14l16-0.7L62.8,81.5H56.8z M93.9,53.8
	L81.3,65.2l0,0l-18.4,0.6l-8.8-6l2.8-27.1l10.9-1.3l14.6,3.2l0,0L93.9,53.8z M80.2,33l-11.6-3.2l-3.8-9.6L80.2,33z M23.6,19.5
	L23.6,19.5l16,9l-9.3,0.2l-11.9-2.9L23.6,19.5L23.6,19.5z M16.8,27.5l7.8,1.9l-10.1,1.3L16.8,27.5z M5.4,50.1l6.9-15.7l4.2,8.5
	l-5.9,18.1L5.4,50.1z"/>
</svg>
