<?xml version="1.0" encoding="utf-8"?>
<!-- Generator: Adobe Illustrator 19.2.1, SVG Export Plug-In . SVG Version: 6.00 Build 0)  -->
<!DOCTYPE svg PUBLIC "-//W3C//DTD SVG 1.1//EN" "http://www.w3.org/Graphics/SVG/1.1/DTD/svg11.dtd">
<svg version="1.1" id="Layer_1" xmlns="http://www.w3.org/2000/svg" xmlns:xlink="http://www.w3.org/1999/xlink" x="0px" y="0px"
	 width="100px" height="100px" viewBox="0 0 100 100" style="enable-background:new 0 0 100 100;" xml:space="preserve">
<style type="text/css">
	.st0{fill:#FFFFFF;}
</style>
<path class="st0" d="M73.5,66c-9.1,0-16.5,7.4-16.5,16.5c0,9.1,7.4,16.5,16.5,16.5C82.6,99,90,91.6,90,82.5C90,73.4,82.6,66,73.5,66
	z M73.5,93.1c-5.8,0-10.6-4.7-10.6-10.6c0-5.8,4.7-10.6,10.6-10.6c5.8,0,10.6,4.7,10.6,10.6C84.1,88.4,79.4,93.1,73.5,93.1z
	 M26.5,66C17.4,66,10,73.4,10,82.5C10,91.6,17.4,99,26.5,99c9.1,0,16.5-7.4,16.5-16.5C42.9,73.4,35.6,66,26.5,66z M26.5,93.1
	c-5.8,0-10.6-4.7-10.6-10.6c0-5.8,4.7-10.6,10.6-10.6c5.8,0,10.6,4.7,10.6,10.6C37,88.4,32.3,93.1,26.5,93.1z M81.4,20.8L81.4,20.8
	l0.1-0.2c3.4-10.9-7.9-18.7-8.1-18.8l-0.9-0.6l-0.6,1L49.8,40.9L28,1.9L27.5,1l-0.9,0.4C16.1,6.5,18,19.8,18,19.9l0,0.2l0.1,0.2
	l23.5,39.3C42.8,71.2,50,74,50,74s7.1-2.6,9.1-14.3L81.4,20.8z M50,66.6c-2.3,0-4.1-1.8-4.1-4.1c0-2.3,1.8-4.1,4.1-4.1
	s4.1,1.8,4.1,4.1C54.1,64.8,52.3,66.6,50,66.6z M50.1,54.5c-1.7,0-3.5,0.5-4.9,1.4L23,18.5c-0.1-1.8-0.2-6.8,2.8-10.3l19.6,35.1
	l4.4,7.8l4.4-7.7L73.8,9c2,2.3,4,5.8,3,9.7L55.1,56.2C53.7,55.1,52.1,54.5,50.1,54.5z"/>
</svg>
