<?xml version="1.0" encoding="utf-8"?>
<!-- Generator: Adobe Illustrator 19.2.1, SVG Export Plug-In . SVG Version: 6.00 Build 0)  -->
<!DOCTYPE svg PUBLIC "-//W3C//DTD SVG 1.1//EN" "http://www.w3.org/Graphics/SVG/1.1/DTD/svg11.dtd">
<svg version="1.1" id="Layer_1" xmlns="http://www.w3.org/2000/svg" xmlns:xlink="http://www.w3.org/1999/xlink" x="0px" y="0px"
	 width="200px" height="100px" viewBox="0 0 200 100" style="enable-background:new 0 0 200 100;" xml:space="preserve">
<style type="text/css">
	.st0{fill:#FFFFFF;}
</style>
<path class="st0" d="M31.7,22.5C16.5,22.5,4.2,34.8,4.2,50s12.3,27.5,27.5,27.5S59.2,65.2,59.2,50S46.9,22.5,31.7,22.5z M31.7,72.4
	c-12.4,0-22.4-10-22.4-22.4s10-22.4,22.4-22.4s22.4,10,22.4,22.4S44.1,72.4,31.7,72.4z M17.3,61.7L46,61.9v-4l-28.7-0.2V61.7z
	 M39.2,44.1c1.2,0,2.2-1,2.2-2.2s-1-2.2-2.2-2.2s-2.2,1-2.2,2.2S38,44.1,39.2,44.1z M24.1,44.3c1.2,0,2.2-1,2.2-2.2s-1-2.2-2.2-2.2
	s-2.2,1-2.2,2.2S22.9,44.3,24.1,44.3z"/>
<g>
	<path class="st0" d="M76.4,60.2l0,1.6h-9.4l-0.2-1l2.7-1.2V42.8L67,42.4l0-1.6h8.9l0.2,1c-0.5,0.3-1.4,0.7-2.7,1.2v16.8L76.4,60.2z
		"/>
	<path class="st0" d="M83.4,59.2c0.6,0,1.5-0.2,2.8-0.6l0.4,1.5l-4.5,2.2c-0.9,0-1.7-0.3-2.4-0.9c-0.8-0.6-1.2-1.3-1.2-2.1v-9.8
		l-2.1,0L76.3,48c0.9-0.5,1.7-0.9,2.4-1.1l1.4-4.1H82l0.3,4h4.5l0.1,1.2l-1.5,1.7h-3v7.9c0,0.6,0.1,1,0.2,1.3
		C82.7,59,83,59.2,83.4,59.2z"/>
	<path class="st0" d="M88,45.2c1.3-1,2-2.2,2.2-3.5l-1.7-1.4c0.1-0.6,0.3-1.1,0.8-1.6s0.9-0.9,1.5-1.1c1.7,0.7,2.5,1.8,2.5,3.3
		c0,1.1-0.4,2.1-1.2,3.1c-0.8,1-1.8,1.9-3.1,2.5L88,45.2z"/>
	<path class="st0" d="M96,49.8c0,0.6,0.3,1.2,0.8,1.6c0.5,0.4,1.4,0.8,2.5,1.3l2.1,1.1c1.7,1,2.5,2.3,2.5,3.9c0,1.4-0.5,2.5-1.6,3.4
		s-2.5,1.3-4.2,1.3c-2,0-4-0.6-6-1.7l1.4-3.3c1.9,1.4,4,2.3,6.1,2.7c0.5-0.4,0.8-1,0.8-1.6c0-0.6-0.2-1.1-0.7-1.5
		c-0.4-0.4-1.5-1-3.1-1.7c-1.6-0.7-2.7-1.4-3.3-2.1s-0.9-1.5-0.9-2.4c0-1.5,0.6-2.6,1.9-3.5s2.8-1.3,4.5-1.3c1.6,0,3.1,0.3,4.4,1h0
		l0,0.8c0,1.2-0.2,2.4-0.6,3.5h-2.1l-0.5-2.7c-1.1-0.4-2.2-0.5-3.2-0.4C96.3,48.5,96,49.1,96,49.8z"/>
	<path class="st0" d="M136.4,60.2l0,1.6H127l-0.2-1c0.7-0.4,1.7-0.8,2.9-1.2l-1.5-3.9h-8.1l-1.6,4.1l3.1,0.4l0,1.6h-8.5l-0.2-1
		c0.8-0.4,1.7-0.8,2.7-1.1l7.3-17.8l-0.3-0.8l3.4-1l8.1,19.8L136.4,60.2z M127.4,53.5l-3.2-8.3l-3.2,8.3H127.4z"/>
	<path class="st0" d="M164.3,40.7l0,0.8c0,1.7-0.1,3.4-0.4,5.2h-2.2l-0.4-3.6l-4.7-0.3v16.9l3.5,0.4l0,1.6h-10.5l-0.2-1l2.3-0.9
		l1-0.4V42.9l-4.7,0.3l-0.4,3.6h-2.1c-0.3-1.7-0.4-3.4-0.4-5.1l0-1l9.7,0.1C158.1,40.8,161.3,40.8,164.3,40.7z"/>
	<path class="st0" d="M171.3,59.5c1,0.2,1.7,0.4,2.3,0.8l-0.1,1.5h-8.2l-0.1-1.1c0.6-0.3,1.4-0.6,2.4-0.9v-11l-2.4,0l-0.3-1.5
		c1.5-0.6,3.1-0.9,5-1.1l1.4,1.3V59.5z M169.7,43.7c-1.2-0.5-2.1-1.2-2.9-2.2c0.6-1.3,1.4-2.2,2.4-2.9c1.1,0.5,2,1.3,2.8,2.4
		C171.4,42.1,170.7,43,169.7,43.7z"/>
	<path class="st0" d="M177.7,53.7c0,1.8,0.5,3.2,1.4,4.2s2.2,1.5,3.6,1.5c1.2,0,2.5-0.4,4.1-1.1l0.6,1.5l-5,2.4
		c-2.5,0.1-4.5-0.5-6.1-2s-2.4-3.4-2.4-5.8c0-2.3,0.7-4.3,2.2-5.9c1.5-1.7,3.3-2.5,5.4-2.5c1.8,0,3.3,0.6,4.4,1.7s1.7,2.6,1.7,4.3
		l-1.9,1.8L177.7,53.7z M180.2,48.2c-1.1,0.6-1.9,1.8-2.3,3.6l6.2-0.3c-0.2-1-0.6-1.8-1.4-2.4C182,48.5,181.2,48.2,180.2,48.2z"/>
</g>
</svg>
