<?xml version="1.0" encoding="utf-8"?>
<!-- Generator: Adobe Illustrator 19.2.1, SVG Export Plug-In . SVG Version: 6.00 Build 0)  -->
<!DOCTYPE svg PUBLIC "-//W3C//DTD SVG 1.1//EN" "http://www.w3.org/Graphics/SVG/1.1/DTD/svg11.dtd">
<svg version="1.1" id="Layer_1" xmlns="http://www.w3.org/2000/svg" xmlns:xlink="http://www.w3.org/1999/xlink" x="0px" y="0px"
	 width="200px" height="100px" viewBox="0 0 200 100" style="enable-background:new 0 0 200 100;" xml:space="preserve">
<style type="text/css">
	.st0{fill:#24AE5F;}
</style>
<path class="st0" d="M23.3,47.4c2.1-0.4,3.6-2.4,3.2-4.5s-2.4-3.6-4.5-3.2s-3.6,2.4-3.2,4.5C19.2,46.2,21.2,47.8,23.3,47.4z
	 M37.5,37c-2.1,0.4-3.6,2.4-3.2,4.5c0.4,2.1,2.4,3.6,4.5,3.2c2.1-0.4,3.6-2.4,3.2-4.5C41.7,38.2,39.7,36.7,37.5,37z M42.2,52.2
	c-0.1,0-0.3,0-0.4,0l-18.9,3.2c-1.1,0.2-1.8,1.2-1.6,2.3c0,0.1,0.1,0.2,0.1,0.4c2,5.2,7.4,8.3,12.9,7.4s9.6-5.6,9.8-11.2
	C44.2,53.2,43.3,52.2,42.2,52.2z M27.2,22.9c-15,2.5-25.1,16.7-22.6,31.7s16.7,25.1,31.7,22.6s25.1-16.7,22.6-31.7
	C56.3,30.5,42.1,20.4,27.2,22.9z M35.4,72.1c-12.2,2-23.7-6.2-25.8-18.4C7.6,41.5,15.8,30,28,27.9S51.7,34,53.8,46.2
	C55.8,58.5,47.6,70,35.4,72.1z"/>
<g>
	<path class="st0" d="M78.5,59.4l2.7,0.4l0,1.6h-8.8l-0.2-1c0.6-0.3,1.4-0.7,2.5-1.1v-5.9l-6-11.1l-2-0.3l0-1.6h7.9l0.2,1l-2,0.9
		l3.2,6.1L77,51h0.2l4.4-8.8L79.1,42l0-1.6h7.4l0.2,1c-0.7,0.4-1.5,0.7-2.4,1l-5.8,10.7V59.4z"/>
	<path class="st0" d="M84.3,53.7c0-2.4,0.7-4.3,2.1-5.9c1.4-1.5,3.2-2.3,5.4-2.3c2.2,0,3.9,0.8,5.3,2.3c1.4,1.5,2.1,3.5,2.1,6
		c0,2.5-0.7,4.4-2,5.9C95.7,61.2,94,62,91.9,62c-2.2,0-4-0.8-5.4-2.3C85,58.1,84.3,56.1,84.3,53.7z M93.5,59.4
		c1.2-0.8,1.8-2.5,1.8-5.2c0-1.8-0.3-3.3-0.9-4.5c-0.6-1.2-1.5-1.8-2.8-1.8c-0.8,0-1.5,0.2-2,0.6c-0.9,1.1-1.3,2.7-1.3,5
		c0,1.8,0.3,3.2,1,4.4c0.7,1.2,1.7,1.8,3,1.8C92.6,59.6,93,59.5,93.5,59.4z"/>
	<path class="st0" d="M117.8,60l-3.6,1.8c-0.4,0-1-0.3-1.5-0.8c-0.6-0.5-1-1.1-1.2-1.7c-2.1,1.5-4.1,2.3-5.9,2.6
		c-0.7-0.1-1.3-0.4-2-0.9s-1.1-1-1.4-1.5s-0.4-1.6-0.4-3.3v-7.8l-2.4,0l-0.3-1.5c1.5-0.6,3.2-1,5-1.1v0l1.4,1.2v9.3
		c0.1,1.7,0.8,2.6,2.1,2.6c1,0,2.2-0.4,3.6-1.2v-9.4l-2.2-0.1l-0.3-1.5c1.5-0.6,3.1-1,4.8-1l1.4,1.3v11.2c0,0.4,0.3,0.7,0.8,0.7
		l1.5-0.2L117.8,60z"/>
	<path class="st0" d="M157,41.4l-2.4,1.1l-5.4,18.9c-1.3,0.2-2.7,0.3-4,0.3l-3.5-11.8l-0.7,3.7l-2.4,7.8l0,0v0
		c-1.3,0.2-2.7,0.3-4,0.3l-5.8-19.5l-2.3-0.3l0-1.6h9l0.2,1l-2.7,1.2l3.3,12.2l0.3,4h0.1l3.7-12.8l-1.3-4.4l3.8-0.9l3.6,14l0.4,4.1
		h0.1l4.4-16.4l-3.2-0.4l0-1.6h8.3L157,41.4z"/>
	<path class="st0" d="M163.1,59c1,0.2,1.7,0.4,2.3,0.8l-0.1,1.5H157l-0.1-1.1c0.6-0.3,1.4-0.6,2.4-0.9v-11l-2.4,0l-0.3-1.5
		c1.5-0.6,3.1-0.9,5-1.1l1.4,1.3V59z M161.4,43.2c-1.2-0.5-2.1-1.2-2.9-2.2c0.6-1.3,1.4-2.3,2.4-2.9c1.1,0.5,2,1.3,2.8,2.4
		C163.1,41.6,162.4,42.5,161.4,43.2z"/>
	<path class="st0" d="M182.4,59c1,0.2,1.7,0.5,2.3,0.8l-0.2,1.5H177l-0.1-1.1l1.8-0.7V52c0-2.2-0.7-3.3-2-3.3c-0.9,0-2.3,0.6-4,1.7
		V59c0.9,0.2,1.5,0.5,2,0.7l-0.1,1.5h-7.8l-0.1-1.1c0.5-0.3,1.3-0.6,2.3-0.9v-11l-2.4,0l-0.3-1.5c1.5-0.6,3.1-0.9,5-1.1l1.4,1.3v1.8
		c2.6-1.9,4.6-2.9,6-3.1c0.6,0.1,1.3,0.3,1.9,0.7c0.7,0.4,1.1,0.9,1.5,1.5c0.3,0.5,0.4,1.4,0.4,2.9V59z"/>
	<path class="st0" d="M188.9,56.7c1.5,0.6,2.4,1.5,2.6,2.6c-0.4,1.2-1.1,2.1-2.2,2.6c-1.3-0.3-2.2-1-2.8-2.2
		C186.8,58.4,187.6,57.4,188.9,56.7z M186.6,40.3c0.6-0.4,1.5-0.6,2.5-0.6c1.1,0,1.9,0.2,2.3,0.7l-1.2,13.8h-2.5L186.6,40.3z"/>
</g>
</svg>
